<?xml version="1.0" encoding="utf-8"?>
<!-- Generator: Adobe Illustrator 24.1.2, SVG Export Plug-In . SVG Version: 6.00 Build 0)  -->
<svg version="1.1" id="Layer_1" xmlns="http://www.w3.org/2000/svg" xmlns:xlink="http://www.w3.org/1999/xlink" x="0px" y="0px"
	 width="800px" height="1200px" viewBox="0 0 800 1200" enable-background="new 0 0 800 1200" xml:space="preserve">
<g opacity="0.2">
	<path fill-rule="evenodd" clip-rule="evenodd" fill="#36989E" d="M67.3,334.5C-54,518.9,121.4,595.1,121.4,595.1s38,23.4,91.2,6.3
		c0,0,45.4-21.3,88.9,13.1C577,774,608.6,557.1,608.6,557.1c6.9-60.2,46.8-118.6,46.8-118.6c102.5-182.5,6.7-297.1,6.7-297.1
		c-124.2-156.4-248.3-22-248.3-22c-47.4,67.5-107.1,18.7-107.1,18.7C224.5,66.5,139,119,134.3,188.6C134.3,188.6,135,255,67.3,334.5
		z"/>
</g>
<g>
	<path fill-rule="evenodd" clip-rule="evenodd" fill="#F36E24" d="M683.5,116.3L671,102.4l42.9-21.2l-50.1,13.3l-12.5-13.9l81.2-6.2
		L683.5,116.3z"/>
</g>
<g>
	<path fill-rule="evenodd" clip-rule="evenodd" fill="#36989E" d="M720.9,145.5l47.9,29.6c4.9,3,7.7,9.8,6.3,15.1L750.5,282
		c-1.4,5.3-6.6,7.2-11.5,4.2l-47.9-29.6c-4.9-3-7.7-9.8-6.3-15.1l24.6-91.8C710.9,144.3,716,142.4,720.9,145.5z"/>
</g>
<g opacity="0.3">
	<path fill-rule="evenodd" clip-rule="evenodd" fill="#F2F2F3" d="M732,227.2h-24v-24h24V227.2z"/>
</g>
<g opacity="0.5">
	<path fill-rule="evenodd" clip-rule="evenodd" fill="#F2F2F3" d="M743.5,244.6c0,6.6-5.4,12-12,12c-6.6,0-12-5.4-12-12
		s5.4-12,12-12C738.1,232.6,743.5,237.9,743.5,244.6z"/>
</g>
<g opacity="0.4">
	<path fill-rule="evenodd" clip-rule="evenodd" fill="#F2F2F3" d="M727.8,189.3l13.8,24l13.9-24L727.8,189.3"/>
</g>
<g>
	<path fill-rule="evenodd" clip-rule="evenodd" fill="#E1A482" d="M469.6,238.8c0,0,32.6-63.1,4.9-127.6
		c-61-15.5-187.2,34-135.2,103.4l-6.4,55.5l62.2,4l-1.8-38.3C393.3,235.8,434.8,276.1,469.6,238.8z"/>
</g>
<g>
	<path fill-rule="evenodd" clip-rule="evenodd" fill="#121212" d="M328.4,234.6c0,0-55.6-70.5-22.5-119.7c0,0,13.2-55.9,121-42.7
		c0,0,47.6,10.7,62.2-7.2c0,0,18.9-7.1,1.8,34.4c0,0-31,56-106.3,56c0,0-38.5-15.1-20.7,34.3c0,0,0.9,33.3-16.4,45.4
		C347.7,235.2,339.7,248,328.4,234.6z"/>
</g>
<g>
	<path fill-rule="evenodd" clip-rule="evenodd" fill="#B28B67" d="M479.2,941c-11.8-3-31.7-1.6-39.7,10.2
		c-5.1,7.5-16.2,28-27.6,51.4c-10,20.6-20.9,67.3-20.9,67.3l21.9-0.2c0,0,37.9-55.6,60.1-92.7C473.7,984,490.6,953.5,479.2,941z"/>
</g>
<g>
	<path fill-rule="evenodd" clip-rule="evenodd" fill="#B28B67" d="M315.9,942.9c-11.6-3.6-31.6-2.9-40.1,8.5
		c-5.4,7.3-17.4,27.2-29.8,50.2c-10.8,20.1-23.8,66.3-23.8,66.3l21.9,0.7c0,0,40.3-53.9,64.1-90
		C308.5,985.6,326.8,955.9,315.9,942.9z"/>
</g>
<g>
	<path fill-rule="evenodd" clip-rule="evenodd" fill="#C0CAB9" d="M392.5,1055.1c-1.1-1.8-3.6-2.2-5.2-0.9c0,0-6.2,4.8-8.6,9
		c-2.4,4.2-5.7,13.1-5.7,13.1c4.9,2.8,87.9,50.8,87.9,50.8s10-9.4,3.1-14.5c-6.9-5.2-11.3-8.7-11.3-8.7l-30.3-41.8
		c-0.6-0.8-1.8-1-2.6-0.4l-6.3,4.9c0,0-8.7-0.8-13-3.2C396.2,1060.8,392.5,1055.1,392.5,1055.1z"/>
</g>
<g>
	<path fill-rule="evenodd" clip-rule="evenodd" fill="#C0CAB9" d="M227.9,1048.2c-0.6-2-2.9-3-4.8-2.2c0,0-7.2,3-10.7,6.5
		c-3.4,3.4-8.9,11.2-8.9,11.2c4,4,71.8,71.8,71.8,71.8s12-6.5,6.8-13.2c-5.3-6.8-8.7-11.3-8.7-11.3l-18.5-48.2
		c-0.4-0.9-1.4-1.4-2.4-1l-7.3,3.1c0,0-8.2-3-11.7-6.5C229.9,1054.7,227.9,1048.2,227.9,1048.2z"/>
</g>
<g>
	<path fill-rule="evenodd" clip-rule="evenodd" fill="#0862A0" d="M206.1,612.9c0,0-43.1,113.7,90.1,278.7c0,0-34,51.5-65.8,150
		l22.5,14.8c0,0,84.9-65.8,120.6-172.1c0,0-5.8-86.1-13.9-151.4c0,0,61.2,96.2,94.3,135.9c0,0-60.3,104.7-59.7,180.1l25.3,11.3
		c0,0,80.4-81.8,115.4-201.4c0,0,1.8-199.2-66.6-251.4L206.1,612.9z"/>
</g>
<g>
	<path fill-rule="evenodd" clip-rule="evenodd" fill="#EA0A8C" d="M261.7,367.9c-30.8-10.2-162.8,2-55.5,119.9l-7.1,28.2
		c0,0-184.4-114.3-48-207.4c0,0,163.3-104.9,365.7-10.7c0,0,132.3,69.3,191.9-21.5l24.2,16.4c0,0-73.3,142.2-258.1,100l47.4,191.1
		c0,0,18.3,77.4-85.7,36.5c0,0-258.4,63.1-240.5-37.1C196,583.3,220.2,433.5,261.7,367.9z"/>
</g>
<g>
	<g>
		<path fill="#F36E24" d="M658.7,108.1l-2.4-3.2c1.6-1.2,3.2-2.4,4.9-3.6l2.3,3.2C661.9,105.7,660.3,106.9,658.7,108.1z"/>
	</g>
	<g>
		<path fill="#F36E24" d="M340,475.5l-0.1-4c3.9-0.1,7.9-0.2,11.9-0.5l0.3,4C348,475.3,344,475.4,340,475.5z M327.9,475.5
			c-4-0.1-8.1-0.3-12.1-0.6l0.3-4c3.9,0.3,7.9,0.5,11.9,0.6L327.9,475.5z M364.1,473.9l-0.4-4c3.9-0.4,7.9-1,11.8-1.6l0.6,4
			C372.1,473,368.1,473.5,364.1,473.9z M303.8,473.6c-4-0.5-8-1.2-12-1.9l0.7-3.9c3.9,0.7,7.8,1.3,11.7,1.9L303.8,473.6z M388,470.2
			l-0.8-3.9c3.9-0.8,7.8-1.6,11.7-2.6l0.9,3.9C395.9,468.6,392,469.5,388,470.2z M280,469.1c-3.9-1-7.9-2.1-11.7-3.2l1.2-3.8
			c3.7,1.2,7.6,2.2,11.5,3.2L280,469.1z M411.5,464.6l-1.1-3.8c3.8-1.1,7.6-2.2,11.4-3.5l1.2,3.8
			C419.3,462.3,415.4,463.5,411.5,464.6z M256.8,461.9c-3.8-1.4-7.6-3-11.2-4.7l1.7-3.6c3.6,1.6,7.3,3.2,11,4.6L256.8,461.9z
			 M434.5,457.1l-1.4-3.8c3.7-1.4,7.4-2.8,11.1-4.3l1.5,3.7C442.1,454.2,438.3,455.7,434.5,457.1z M234.7,451.9
			c-3.6-1.9-7.1-4-10.5-6.1l2.1-3.4c3.3,2.1,6.8,4.1,10.2,6L234.7,451.9z M456.9,447.9l-1.7-3.6c3.6-1.7,7.2-3.4,10.6-5.3l1.9,3.5
			C464.2,444.4,460.6,446.2,456.9,447.9z M214.2,438.9c-3.3-2.4-6.5-4.9-9.5-7.5l2.6-3c3,2.5,6.1,5,9.3,7.4L214.2,438.9z
			 M478.2,436.4l-2.1-3.4c3.4-2.1,6.7-4.3,9.8-6.6l2.4,3.2C485,432,481.6,434.3,478.2,436.4z M195.8,423.2c-2.9-2.8-5.7-5.8-8.3-8.8
			l3-2.6c2.6,3,5.3,5.9,8.1,8.6L195.8,423.2z M497.8,422.2l-2.6-3.1c3-2.5,5.9-5.2,8.7-8l2.8,2.9
			C503.9,416.8,500.9,419.6,497.8,422.2z M515,405.2l-3-2.6c2.6-2.9,5.1-6,7.5-9.2l3.2,2.4C520.2,399,517.7,402.2,515,405.2z
			 M179.8,404.9c-2.4-3.2-4.7-6.6-6.9-10l3.4-2.2c2.1,3.3,4.4,6.6,6.8,9.7L179.8,404.9z M529.7,385.9l-3.3-2.2
			c2.1-3.2,4.2-6.6,6.2-10.1l3.5,2C533.9,379.1,531.8,382.6,529.7,385.9z M541.7,364.9l-3.6-1.8c1.7-3.4,3.4-7.1,5-10.8l3.7,1.6
			C545.1,357.7,543.4,361.4,541.7,364.9z M551.4,342.8l-3.7-1.5c1.4-3.6,2.8-7.3,4.1-11.2l3.8,1.3
			C554.2,335.3,552.8,339.2,551.4,342.8z M559.4,320l-3.8-1.2c1.2-3.6,2.3-7.5,3.5-11.4l3.8,1.1C561.7,312.5,560.5,316.4,559.4,320z
			 M146.6,312c-0.3-4-0.5-5.1-0.6-9.1l4-0.1c0.1,3.9,0.3,1.9,0.6,5.9L146.6,312z M566.2,296.9l-3.9-1.1c1.1-3.9,2.1-7.7,3.1-11.6
			l3.9,1C568.3,289.1,567.3,293,566.2,296.9z M150.1,290.9l-4-0.2c0.2-4,0.5-8.1,0.9-12.1l4,0.4C150.6,283,150.3,287,150.1,290.9z
			 M572.4,273.6l-3.9-1l0.8-3.1c0.7-2.8,1.5-5.7,2.2-8.5l3.9,1c-0.7,2.8-1.5,5.7-2.2,8.5L572.4,273.6z M152.7,267.3l-3.9-0.7
			c0.7-4,1.5-8,2.4-11.9l3.9,0.9C154.2,259.5,153.3,263.4,152.7,267.3z M578.6,250.4l-3.9-1c1.1-4.2,2.2-8,3.2-11.6l3.8,1.1
			C580.8,242.4,579.7,246.2,578.6,250.4z M158.2,244.3l-3.8-1.2c1.2-3.9,2.5-7.7,4-11.5l3.7,1.4
			C160.7,236.7,159.4,240.5,158.2,244.3z M585.1,227.4l-3.8-1.2c1.2-4,2.4-7.8,3.6-11.5l3.8,1.2
			C587.5,219.6,586.3,223.4,585.1,227.4z M166.8,222.2l-3.6-1.7c1.7-3.7,3.6-7.3,5.5-10.8l3.5,1.9
			C170.2,215,168.4,218.6,166.8,222.2z M592.6,204.7l-3.8-1.4c1.4-3.9,2.8-7.7,4.3-11.3l3.7,1.5C595.4,197.1,594,200.9,592.6,204.7z
			 M178.3,201.5l-3.4-2.2c2.2-3.4,4.6-6.7,7-9.9l3.2,2.4C182.7,194.9,180.4,198.2,178.3,201.5z M601.5,182.6l-3.6-1.6
			c1.7-3.7,3.4-7.4,5.2-10.9l3.6,1.8C604.9,175.3,603.2,178.9,601.5,182.6z M192.6,182.6l-3-2.6c2.7-3,5.5-6,8.3-8.8l2.8,2.8
			C197.9,176.7,195.2,179.6,192.6,182.6z M209.4,166l-2.6-3c3-2.6,6.2-5.1,9.5-7.6l2.4,3.2C215.5,160.9,212.4,163.4,209.4,166z
			 M612.3,161.4l-3.5-2c2-3.5,4.2-7,6.4-10.3l3.3,2.2C616.5,154.6,614.3,158,612.3,161.4z M228.5,151.8l-2.2-3.4
			c3.4-2.2,6.9-4.2,10.4-6.2l1.9,3.5C235.2,147.7,231.8,149.7,228.5,151.8z M625.4,141.6l-3.2-2.4c2.4-3.2,5-6.4,7.6-9.4l3,2.6
			C630.3,135.4,627.8,138.5,625.4,141.6z M249.2,140.4l-1.7-3.6c3.6-1.7,7.3-3.3,11.1-4.9l1.5,3.7
			C256.4,137.1,252.8,138.7,249.2,140.4z M271.3,131.5l-1.3-3.8c3.8-1.3,7.7-2.5,11.6-3.6l1.1,3.9
			C278.8,129.1,275,130.2,271.3,131.5z M294.2,125.1l-0.9-3.9c3.9-0.9,5.7-1.5,9.7-2.2l-2.2,4.7C296.9,124.4,298,124.2,294.2,125.1z
			 M640.9,123.7l-2.8-2.8c2.8-2.9,5.8-5.6,8.8-8.3l2.6,3C646.6,118.2,643.7,120.9,640.9,123.7z"/>
	</g>
</g>
</svg>
